<?xml version="1.0" encoding="utf-8"?>
<!-- Generator: Adobe Illustrator 24.1.0, SVG Export Plug-In . SVG Version: 6.00 Build 0)  -->
<svg version="1.1" id="Layer_1" xmlns="http://www.w3.org/2000/svg" xmlns:xlink="http://www.w3.org/1999/xlink" x="0px" y="0px"
	 viewBox="0 0 190.3 71.44" style="enable-background:new 0 0 190.3 71.44;" xml:space="preserve">
<style type="text/css">
	.st0{fill:#C5D02E;}
	.st1{fill:none;}
	.st2{fill:#2D2D2D;}
	.st3{fill:none;stroke:#2D2D2D;stroke-miterlimit:10;}
	.st4{fill:#00739F;}
	.st5{fill:#FFFFFF;}
</style>
<g>
	<g>
		<g>
			<path class="st0" d="M30.63,6.2c5.93-0.74,12.23,0.57,17.59,3.69c5.37,3.08,9.82,7.99,12.16,13.88
				c2.38,5.87,2.5,12.59,0.41,18.47c-2.05,5.9-6.29,10.88-11.49,13.81c4.32-4.11,7.49-9.14,8.89-14.61
				C59.6,36,59.19,30.2,57.14,25.06c-2.05-5.15-5.73-9.64-10.37-12.88C42.12,8.92,36.55,6.92,30.63,6.2z"/>
		</g>
		<g>
			<path class="st1" d="M59.53,2.47"/>
		</g>
		<g>
			<g>
				<path class="st2" d="M53.71,6.26c0.33-0.47,0.36-1.09,0.12-1.53C53.6,4.28,53.11,3.99,52.64,4c-0.51-0.01-0.97,0.29-1.21,0.74
					c-0.24,0.45-0.2,1.05,0.12,1.53C51.09,5.9,50.89,5.2,51.13,4.6c0.21-0.61,0.86-1.04,1.5-1.04c0.68,0,1.3,0.43,1.51,1.04
					C54.37,5.21,54.17,5.9,53.71,6.26z"/>
			</g>
			<g>
				<path class="st2" d="M67.02,6.26c0.33-0.47,0.36-1.09,0.12-1.53C66.91,4.28,66.43,3.99,65.96,4c-0.51-0.01-0.97,0.29-1.21,0.74
					c-0.24,0.45-0.21,1.05,0.12,1.53C64.4,5.9,64.21,5.2,64.44,4.6c0.21-0.61,0.86-1.04,1.5-1.04c0.68,0,1.3,0.43,1.52,1.04
					C67.69,5.21,67.49,5.9,67.02,6.26z"/>
			</g>
			<g>
				<path class="st2" d="M54.45,2.54c1.83,0.64,3.81,0.8,5.68,0.48c0.93-0.2,1.92-0.41,2.89-0.54c0.98-0.15,1.96-0.24,3-0.13
					l-0.03,0c0.65,0.06,1.27,0.18,1.88,0.42c0.3,0.12,0.6,0.26,0.87,0.46c0.25,0.2,0.5,0.46,0.58,0.79l-0.08,0.04
					c-0.18-0.24-0.43-0.39-0.7-0.49c-0.26-0.11-0.54-0.18-0.83-0.22c-0.57-0.09-1.17-0.14-1.74-0.13H66l-0.07,0
					c-0.9-0.02-1.88,0.02-2.84,0.06c-0.97,0.05-1.9,0.19-2.89,0.33c-1,0.11-2,0.08-2.98-0.1c-0.97-0.17-1.93-0.45-2.82-0.87
					L54.45,2.54z"/>
			</g>
			<g>
				<path class="st2" d="M55.32,4.89c1.2-0.09,2.4-0.16,3.62-0.16c0.6,0,1.21-0.01,1.81,0.05c0.6,0.07,1.19,0.11,1.79,0.23v0.04
					c-0.6,0.14-1.21,0.16-1.81,0.17c-0.61,0-1.2-0.09-1.8-0.13c-1.2-0.08-2.4-0.11-3.6-0.14L55.32,4.89z"/>
			</g>
			<g>
				<path class="st2" d="M51.73,2.09c0.78-0.7,1.72-1.21,2.71-1.58c1-0.37,2.08-0.55,3.16-0.5c1.09,0.05,2.17,0.41,3.08,0.92
					c0.93,0.5,1.79,1.09,2.56,1.79c-0.96-0.4-1.9-0.82-2.84-1.18c-0.95-0.37-1.87-0.63-2.84-0.66c-0.97-0.06-1.95,0.07-2.93,0.29
					C53.66,1.39,52.7,1.7,51.73,2.09z"/>
			</g>
			<g>
				<path class="st2" d="M47.52,0.42l3.08-0.08c1.03-0.04,2.05-0.04,3.08,0.08v0.02c-1.03,0.11-2.05,0.12-3.08,0.08l-3.08-0.08V0.42
					z"/>
			</g>
			<g>
				<path class="st2" d="M45.62,1.45l3.08-0.08c1.03-0.04,2.05-0.04,3.08,0.08v0.02c-1.03,0.11-2.05,0.12-3.08,0.08l-3.08-0.08V1.45
					z"/>
			</g>
			<g>
				<path class="st2" d="M44.86,2l3.08-0.08c1.03-0.04,2.05-0.04,3.08,0.08v0.02c-1.03,0.11-2.05,0.12-3.08,0.08l-3.08-0.08V2z"/>
			</g>
			<g>
				<path class="st2" d="M48.41,0.9l1.94-0.08C51,0.78,51.64,0.79,52.29,0.9v0.02C51.64,1.04,51,1.04,50.35,1l-1.94-0.08V0.9z"/>
			</g>
			<g>
				<path class="st2" d="M45.35,2.8l1.94-0.08c0.65-0.04,1.29-0.04,1.94,0.08v0.02c-0.65,0.11-1.29,0.12-1.94,0.08l-1.94-0.08V2.8z"
					/>
			</g>
			<g>
				<path class="st2" d="M44.33,3.58l1.94-0.08c0.65-0.04,1.3-0.04,1.94,0.08V3.6c-0.65,0.11-1.29,0.12-1.94,0.08L44.33,3.6V3.58z"
					/>
			</g>
		</g>
		<g>
			<path class="st3" d="M60.82,34.21"/>
		</g>
		<g>
			<path class="st4" d="M71.87,58.76c-5.62-2.96-12.27-3.28-17.8-1.05c-1.4,0.57-2.66,1.2-3.96,2.09c-1.44,0.88-2.89,1.61-4.4,2.28
				c-3.01,1.33-6.23,2.27-9.58,2.73c-3.39,0.45-6.78,0.31-10.11-0.34c-3.33-0.64-6.57-1.79-9.57-3.41
				c-6-3.25-10.95-8.49-13.82-14.78c-1.41-3.15-2.27-6.55-2.55-9.99C0.02,35.41-0.01,34.59,0,33.67c0.01-0.74,0.06-1.72,0.13-2.55
				c0.17-1.71,0.46-3.42,0.93-5.08C2.92,19.42,7.03,13.5,12.5,9.55c2.72-1.99,5.72-3.58,8.9-4.62c3.17-1.03,6.48-1.58,9.77-1.62
				c1.67-0.01,3.24,0.13,4.81,0.21c1.58,0.09,3.16,0.17,4.74,0.29c3.16,0.21,6.32,0.43,9.48,0.72c-3.16,0.29-6.32,0.51-9.48,0.73
				c-1.58,0.12-3.16,0.19-4.74,0.29c-1.58,0.1-3.18,0.14-4.66,0.33c-6.05,0.65-11.77,3.1-16.3,6.88c-2.25,1.91-4.2,4.14-5.78,6.58
				c-1.56,2.46-2.72,5.15-3.38,7.96c-1.36,5.6-0.83,11.62,1.54,16.84c2.3,5.27,6.44,9.71,11.47,12.62
				c4.99,2.99,11.01,4.32,16.85,4.01c2.94-0.19,5.88-0.9,8.75-1.87c1.43-0.49,2.86-1.06,4.19-1.71l0.25-0.13l0.07-0.03L49,57.01
				c0.05-0.03-0.02,0-0.22,0.16c0.21-0.17,0.14-0.1,0.19-0.14l0.05-0.03l0.08-0.05l0.07-0.04c0.12-0.07,0.05-0.03,0.09-0.05
				l0.04-0.02l0.14-0.07l0.28-0.14c0.38-0.19,0.77-0.35,1.16-0.52c0.78-0.32,1.57-0.6,2.38-0.83C59.73,53.48,66.86,54.8,71.87,58.76
				z"/>
		</g>
		<g>
			<path class="st0" d="M19.22,65.85c5.06,1.89,10.31,2.6,15.33,2.16c2.51-0.23,4.97-0.76,7.32-1.59c0.59-0.21,1.17-0.43,1.75-0.67
				c0.57-0.23,1.14-0.5,1.76-0.78l3.65-1.64c2.46-1.07,4.95-2.18,7.7-2.98c2.73-0.81,5.75-1.16,8.6-0.86c2.85,0.28,5.53,1,8.11,1.89
				c2.57,0.92,5.07,1.95,7.48,3.2c-2.7-0.33-5.34-0.8-7.98-1.12c-2.62-0.34-5.23-0.62-7.73-0.55c-2.51,0.06-4.86,0.53-7.22,1.38
				c-2.36,0.84-4.75,1.94-7.19,3.02l-3.7,1.6c-0.61,0.25-1.26,0.53-1.94,0.77c-0.67,0.25-1.35,0.48-2.04,0.67
				c-2.75,0.79-5.62,1.16-8.46,1.07c-2.84-0.09-5.64-0.62-8.26-1.56C23.78,68.9,21.28,67.64,19.22,65.85z"/>
		</g>
		<g>
			<polygon class="st0" points="5.64,34.21 60.63,32.46 60.63,35.95 			"/>
		</g>
		<g>
			<path class="st0" d="M33.32,7.8l0.26,7.77l0.2,7.77c0.07,2.59,0.22,5.18,0.13,7.77c-0.09,2.59-0.23,5.18-0.59,7.77h-0.13
				c-0.36-2.59-0.5-5.18-0.59-7.77c-0.09-2.59,0.06-5.18,0.13-7.77l0.2-7.77l0.26-7.77H33.32z"/>
		</g>
		<g>
			<path class="st0" d="M11.35,18.76c3.38,1.8,7,3.12,10.69,4.03c3.7,0.89,7.51,1.32,11.27,1.05c1.87-0.14,3.74-0.49,5.6-0.85
				c1.86-0.38,3.7-0.83,5.51-1.37c1.81-0.54,3.6-1.15,5.34-1.86c1.72-0.7,3.48-1.51,5-2.42l1.12,1.87c-1.82,0.98-3.6,1.68-5.45,2.34
				c-1.84,0.65-3.71,1.19-5.59,1.65c-1.88,0.46-3.79,0.83-5.7,1.13c-1.91,0.28-3.83,0.55-5.79,0.6c-3.9,0.1-7.77-0.53-11.46-1.61
				C18.21,22.22,14.65,20.72,11.35,18.76z"/>
		</g>
		<g>
			<path class="st0" d="M22.17,12.45c-1.43,2.32-2.54,4.8-3.47,7.31c-0.9,2.53-1.57,5.13-1.9,7.77c-0.33,2.66-0.53,5.37-0.66,8.07
				c-0.1,2.7-0.18,5.41-0.06,8.14c-0.62-2.67-0.89-5.41-0.96-8.15c-0.08-2.75,0.06-5.48,0.38-8.22c0.37-2.76,1.13-5.46,2.26-7.98
				C18.87,16.86,20.33,14.47,22.17,12.45z"/>
		</g>
		<g>
			<path class="st0" d="M42.67,10.95c1.52,1.73,2.67,3.75,3.63,5.85c0.93,2.11,1.63,4.33,2.11,6.59c0.47,2.26,0.84,4.58,0.76,6.9
				c-0.08,2.32-0.39,4.63-1.07,6.84l-0.13-0.02c-0.03-2.31-0.01-4.56-0.1-6.81c-0.11-2.24-0.13-4.49-0.49-6.72
				c-0.34-2.22-0.89-4.42-1.68-6.54c-0.78-2.12-1.76-4.19-3.12-6.01L42.67,10.95z"/>
		</g>
		<g>
			<g>
				<path class="st2" d="M54.25,43.42c0.07-2.44-2-4.94-2-4.94c-0.98-1.09-3.56-1.09-3.56-1.09l-2.94,0.69l-11.29,4.03v-3.23
					l-1.99,1.25l-1.1,0.69v2.55l-4.74,0.9l-5.72-0.01l-3.53,3.36v6.86c0,0,6.73,4.57,11.92,5.26c2.53,0.34,7.33,0.38,11.41-0.55
					c4.29-0.97,7.8-2.93,8.2-3.15c0.76-0.43,4.87-9.33,4.87-9.33S54.2,45.49,54.25,43.42z"/>
			</g>
			<g>
				<path class="st2" d="M43,36.25"/>
			</g>
			<g>
				<rect x="37.28" y="36.38" transform="matrix(0.136 -0.9907 0.9907 0.136 -6.795 71.829)" class="st2" width="1" height="6.86"/>
			</g>
			<g>
				<path class="st2" d="M25.72,44.97c-0.28,0-0.5-0.22-0.5-0.5v-2.5c0-0.28,0.22-0.5,0.5-0.5c0.28,0,0.5,0.22,0.5,0.5v2.5
					C26.22,44.75,25.99,44.97,25.72,44.97z"/>
			</g>
			<g>
				<path class="st2" d="M23.58,47.37c-0.69,0-1.25-0.56-1.25-1.25v-4.98c0-0.69,0.56-1.25,1.25-1.25c0.69,0,1.25,0.56,1.25,1.25
					v4.98C24.83,46.81,24.27,47.37,23.58,47.37z"/>
			</g>
			<g>
				<polygon class="st2" points="29.11,39.6 26.75,41.69 26.75,44.47 29.66,43.79 29.66,40.14 32.15,40.35 32.7,40 				"/>
			</g>
			<g>
				<polyline class="st5" points="26.75,44.81 21.34,44.81 21.34,51.9 26.46,47.4 24.34,47.4 24.34,45.22 26.75,45.22 				"/>
			</g>
		</g>
		<g>
			<path class="st5" d="M49.12,44.16c0.12,1.32-0.59,2.54-1.32,3.57c-0.75,1.03-1.57,2.01-2.1,3.15c-0.53,1.14-0.75,2.4-0.93,3.66
				c-0.18,1.26-0.31,2.53-0.43,3.8l-0.04,0c0.07-1.27,0.15-2.55,0.29-3.82c0.15-1.26,0.34-2.55,0.85-3.75
				c0.5-1.21,1.32-2.22,2.08-3.24c0.77-0.98,1.48-2.08,1.57-3.35L49.12,44.16z"/>
		</g>
	</g>
	<g>
		<path class="st4" d="M83.78,43.52c0,2.36-1.2,4.25-3.59,5.68c-0.69,1.08-1.58,1.61-2.68,1.6c-1.94-0.03-4.1-0.89-6.48-2.6
			c-2.04-1.46-3.46-2.86-4.24-4.22c-0.74-1.26-1.11-2.06-1.11-2.38c0-0.4,0.29-0.86,0.88-1.37c0.55-0.48,0.98-0.72,1.29-0.72
			c0.3,0,0.45,0.2,0.45,0.59c0,0.17-0.03,0.38-0.1,0.62c0.69,1.88,2.15,3.62,4.38,5.23s4.25,2.42,6.05,2.4
			c1.6-0.01,2.4-1.11,2.4-3.28c0-1.2-0.93-3.59-2.8-7.18s-2.8-6.16-2.8-7.71c0-1.02,0.29-1.92,0.86-2.71
			c0.48-0.66,1.33-1.45,2.54-2.36c0.22-0.17,0.44-0.25,0.66-0.25c0.35,0,0.53,0.15,0.53,0.45c0,0.21-0.12,0.42-0.35,0.64
			c-1,0.95-1.5,2.11-1.5,3.48c0,1.52,0.94,4.04,2.81,7.54S83.78,42.66,83.78,43.52z M89.62,25.59c-0.51,1.78-1.2,3.33-2.07,4.65
			c-0.39,0.59-0.76,0.88-1.11,0.88c-0.34,0-0.93-0.28-1.78-0.84c-0.26-0.17-0.39-0.34-0.39-0.53c0-0.27,0.23-0.47,0.68-0.59
			c0.34-0.1,0.72-0.7,1.15-1.78c0.4-1.03,0.61-1.84,0.61-2.42c0-0.61-0.24-0.92-0.72-0.92c-0.17,0-0.38,0.03-0.64,0.08
			c-0.51,0.08-1.6,0.42-3.28,1.04c-0.2,0.07-0.37,0.1-0.53,0.1c-0.39,0-0.59-0.13-0.59-0.39c0-0.25,0.2-0.47,0.61-0.66
			c1.46-0.73,2.9-1.34,4.32-1.84c0.46-0.17,0.78-0.25,0.98-0.25c0.3,0,0.69,0.42,1.17,1.25c0.73,0.22,1.18,0.38,1.35,0.49
			c0.29,0.17,0.43,0.43,0.43,0.78C89.79,24.88,89.73,25.2,89.62,25.59z"/>
		<path class="st4" d="M106.82,26.92c-0.62,2.54-1.35,4.5-2.17,5.88c-0.38,0.65-0.75,0.98-1.11,0.98c-0.14,0-0.32-0.03-0.53-0.1
			c-0.99-0.3-1.48-0.66-1.48-1.07c0-0.21,0.14-0.34,0.41-0.41c1.15-1.72,1.82-3.78,2.03-6.19c-0.71-0.64-1.39-0.96-2.03-0.96
			c-1.35-0.01-2.96,1.18-4.8,3.57c-1.71,2.24-3.18,4.9-4.43,7.97c-1.3,3.2-1.93,5.87-1.88,8.01c0.01,1.24,0.38,2.16,1.11,2.77
			c0.53,0.44,1.14,0.66,1.82,0.66c0.39,0,0.84-0.08,1.35-0.23c1.25-0.39,2.7-1.15,4.34-2.27c1.56-1.07,2.87-2.16,3.91-3.26
			c0.33-0.35,0.52-0.8,0.59-1.35c0.04-0.29,0.17-0.43,0.39-0.43c0.18,0,0.32,0.12,0.41,0.35c0.47,1.17,0.7,1.99,0.7,2.44
			c0,0.43-0.18,0.83-0.53,1.21c-0.23,0.23-0.79,0.68-1.66,1.35c-2.76,2.07-5.13,3.36-7.11,3.87c-0.61,0.16-1.17,0.23-1.68,0.23
			c-1.07,0-1.88-0.36-2.44-1.07c-2.54-0.95-3.81-2.4-3.81-4.36c0-3.15,0.83-6.54,2.48-10.16c1.42-3.14,3.17-5.9,5.25-8.28
			c2-2.28,3.63-3.46,4.88-3.55c0.46-0.04,0.98,0.15,1.58,0.57c0.08,0.05,0.68,0.54,1.82,1.46c0.07-0.52,0.24-0.78,0.53-0.78
			c0.31,0,0.84,0.29,1.58,0.86c0.47,0.36,0.7,0.72,0.7,1.05C107.04,25.91,106.97,26.32,106.82,26.92z"/>
		<path class="st0" d="M138.66,51.43c-1.15,2.02-2.19,3.06-3.12,3.12c-0.57,0.04-1.26-0.28-2.05-0.96
			c-4.74-4.1-9.47-9.45-14.2-16.04c-0.44,1.55-1.2,3.7-2.29,6.45c-0.99,2.5-1.75,4.27-2.27,5.31c-0.29,0.57-0.57,0.86-0.86,0.86
			c-0.16,0-0.35-0.08-0.59-0.25c-0.85-0.64-1.27-1.17-1.27-1.58c0-0.25,0.08-0.56,0.23-0.94c0.34-0.75,0.7-1.77,1.07-3.05
			c0.01-0.33,0.03-0.64,0.04-0.96c0.03-0.22,0.14-0.36,0.33-0.41c0.17-0.04,0.54,0.38,1.11,1.25c0.99-2.1,2.1-4.86,3.32-8.28
			c-0.7-1.08-1.05-1.75-1.05-1.99c0-0.3,0.62-0.5,1.86-0.61c0.55-1.59,1.15-3.62,1.8-6.09c-2.14,0.81-3.72,1.5-4.77,2.07
			c-1.6,0.87-2.86,1.91-3.79,3.11c-0.39,0.5-0.59,1.07-0.59,1.72c0,0.51,0.25,1.5,0.74,2.99c0.14,0.43,0.02,0.64-0.37,0.64
			c-0.25,0-0.46-0.13-0.62-0.39c-0.75-1.13-1.35-2.29-1.8-3.46c-0.31-0.81-0.47-1.33-0.47-1.56c0-0.66,0.46-1.42,1.39-2.27
			c2.63-2.42,6.2-4.32,10.72-5.68c0.07-0.12,0.16-0.58,0.29-1.39c0.1-0.62,0.26-0.92,0.47-0.9c0.25,0.04,0.64,0.57,1.19,1.6
			c2.98-0.72,4.85-1.05,5.61-1c1.17,0.08,2.08,0.91,2.71,2.48c0.79,0.56,1.32,1.03,1.56,1.41c0.35,0.5,0.53,1.16,0.53,1.99
			c0,1.45-0.89,3.27-2.66,5.47c-1.81,2.25-3.37,3.38-4.67,3.38c-0.72,0-1.38-0.17-1.99-0.51c-0.47-0.31-0.94-0.62-1.41-0.94
			c-0.18-0.12-0.27-0.25-0.27-0.41c0-0.34,0.21-0.51,0.64-0.51c0.1,0,0.33,0.06,0.66,0.17s0.64,0.17,0.9,0.17
			c1.29,0,2.75-1.05,4.38-3.14c1.47-1.88,2.21-3.43,2.21-4.67c0-1.5-1.04-2.25-3.12-2.25c-1.75,0-3.67,0.42-5.76,1.25
			c-0.6,2.6-1.33,5.16-2.19,7.68c2.57,3.84,5.48,7.56,8.75,11.15c3.5,3.83,5.89,5.79,7.17,5.88c0.53,0.04,1.08-0.16,1.64-0.59
			c0.23-0.2,0.45-0.29,0.64-0.29c0.26,0,0.39,0.12,0.39,0.37C138.85,51.01,138.79,51.21,138.66,51.43z"/>
		<path class="st0" d="M148.01,37.07c-0.03,1.16-0.31,2.7-0.84,4.61c-0.85,3.02-2.04,5.36-3.59,7.03c-0.82,0.89-1.73,1.33-2.73,1.33
			c-0.39,0-0.89-0.08-1.5-0.25c-1.22-0.08-2.22-0.46-2.99-1.15c-0.83-0.75-1.22-1.73-1.17-2.91c0.05-1.38,0.53-3.31,1.43-5.78
			c0.99-2.7,2.02-4.64,3.09-5.82c0.51-0.57,0.92-0.86,1.25-0.86c0.44,0,1.16,0.46,2.15,1.37c0.27-0.13,0.83-0.37,1.68-0.72
			c0.43-0.14,0.75-0.21,0.98-0.21c0.51,0,1.07,0.48,1.7,1.43C147.85,35.71,148.04,36.36,148.01,37.07z M145.77,37.64
			c0.09-0.87,0.14-1.43,0.14-1.66c0-0.55-0.17-0.82-0.51-0.82c-0.13,0-0.3,0.03-0.51,0.08l-3.03,1.23
			c-0.35,0.14-0.55,0.21-0.61,0.21c-0.1,0-0.21-0.12-0.31-0.37c-0.75,0.92-1.46,2.26-2.11,4c-0.51,1.37-0.86,2.59-1.05,3.67
			c-0.14,0.73-0.21,1.39-0.21,1.99c0,2,0.62,2.98,1.86,2.93c0.5-0.01,1.03-0.21,1.6-0.59c1.09-0.74,2.12-2.23,3.07-4.45
			C145,41.77,145.56,39.7,145.77,37.64z"/>
		<path class="st0" d="M163.01,36.43c-1.2,3.32-2.02,6.11-2.48,8.36c0.2-0.18,0.45-0.46,0.77-0.84s0.52-0.6,0.6-0.66
			c0.18-0.23,0.38-0.35,0.59-0.35c0.2,0,0.29,0.1,0.29,0.29c0,0.12-0.05,0.25-0.16,0.41c-1.22,1.81-2.04,3.64-2.44,5.49
			c-0.12,0.52-0.29,0.78-0.53,0.78c-0.22,0-0.63-0.21-1.23-0.62c-0.35-0.23-0.55-0.43-0.61-0.59c-0.07-0.14-0.07-0.43,0-0.86
			c0.55-3.31,1.23-6.05,2.05-8.24c-1.13,1.84-2.68,3.87-4.63,6.09c-1.71,1.94-2.94,3.18-3.69,3.71c-0.55,0.38-0.96,0.57-1.25,0.57
			c-0.23,0-0.59-0.19-1.07-0.57c-0.69-0.42-1.04-0.99-1.04-1.72c0-0.14,0.01-0.31,0.04-0.49c0.23-1.93,1.08-4.17,2.54-6.73
			s3.13-4.72,5.02-6.47c0.61-0.57,1.16-0.85,1.64-0.84c0.47,0.03,1.36,0.64,2.68,1.86c0.12,0.1,0.18,0.21,0.18,0.33
			c0,0.21-0.14,0.31-0.41,0.31c-0.1,0-0.2-0.02-0.29-0.06c-0.92-0.39-1.67-0.38-2.23,0.04c-1.22,0.9-2.58,2.48-4.06,4.75
			c-1.72,2.6-2.75,4.95-3.11,7.03c-0.01,0.09-0.02,0.18-0.02,0.25c0,0.33,0.13,0.49,0.39,0.49c0.44,0,0.97-0.31,1.58-0.92
			c1.46-1.42,3.02-3.2,4.69-5.35c1.71-2.23,2.8-3.91,3.28-5.04c0.35-0.83,0.58-1.42,0.68-1.76c0.17-0.59,0.35-0.88,0.55-0.88
			s0.65,0.27,1.37,0.8c0.3,0.22,0.46,0.42,0.49,0.61C163.22,35.77,163.16,36.04,163.01,36.43z"/>
		<path class="st0" d="M189.07,19.12c0.16,0.12,0.23,0.25,0.23,0.39c0,0.25-0.16,0.37-0.47,0.37c-0.12,0-0.24-0.03-0.37-0.1
			c-0.61-0.3-1.07-0.45-1.37-0.45c-0.81,0-1.7,0.79-2.68,2.38c-3.58,5.85-6.19,13.63-7.83,23.36c0.34-0.33,0.79-0.83,1.37-1.52
			c0.34-0.4,0.59-0.61,0.74-0.61c0.35,0,0.38,0.2,0.1,0.61c-1.25,1.73-2.08,3.6-2.48,5.61c-0.16,0.48-0.35,0.72-0.59,0.72
			c-0.12,0-0.26-0.06-0.43-0.18c-0.65-0.44-1.02-0.7-1.09-0.78c-0.26-0.25-0.39-0.58-0.39-1c0-0.22,0.03-0.48,0.1-0.78
			c0.56-3.01,1.02-5.25,1.39-6.72c-1.28,1.84-2.72,3.67-4.33,5.5s-2.78,2.99-3.51,3.47c-0.56,0.38-0.98,0.57-1.25,0.57
			c-0.23,0-0.59-0.19-1.07-0.57c-0.85-0.52-1.27-1.13-1.27-1.82c0-0.12,0.01-0.25,0.04-0.39c0.27-1.94,1.14-4.19,2.61-6.75
			s3.14-4.71,5.03-6.46c0.61-0.57,1.16-0.85,1.64-0.84c0.51,0.03,1.41,0.64,2.71,1.86c0.12,0.1,0.18,0.21,0.18,0.33
			c0,0.21-0.14,0.31-0.41,0.31c-0.09,0-0.19-0.02-0.29-0.06c-0.91-0.39-1.65-0.38-2.23,0.04c-1.22,0.91-2.57,2.49-4.04,4.75
			c-1.71,2.6-2.71,4.95-3.01,7.03c-0.07,0.5,0.07,0.74,0.39,0.74c0.43,0,0.96-0.31,1.58-0.92c1.45-1.42,3-3.2,4.67-5.35
			c1.71-2.23,2.8-3.91,3.28-5.04c0.27-0.62,0.49-1.22,0.64-1.8c1.35-4.79,2.86-8.89,4.53-12.29c1.3-2.66,2.45-4.44,3.44-5.35
			c0.36-0.35,0.72-0.53,1.05-0.53c0.36,0,0.83,0.21,1.41,0.64C187.75,18.06,188.4,18.59,189.07,19.12z"/>
		<path class="st0" d="M187.17,45c0.04,1.56-0.83,2.63-2.6,3.2c-0.22,0.55-0.43,0.92-0.62,1.13c-0.3,0.31-0.74,0.5-1.33,0.55
			c-0.38,0.03-0.78,0.01-1.21-0.06c-0.77-0.12-1.71-0.26-2.83-0.43c-0.31-0.05-0.5-0.24-0.57-0.57c0.05-0.35,0.42-0.56,1.09-0.62
			c0.92-0.07,2.29-0.23,4.1-0.49c0.68-0.16,1.16-0.54,1.45-1.15c0.17-0.31,0.25-0.7,0.25-1.15c0-0.82-0.41-2.27-1.23-4.34
			c-0.81-2.02-1.18-3.37-1.13-4.04c0.1-1.63,1.61-2.76,4.51-3.4c0.29-0.07,0.43,0.04,0.43,0.31c0,0.16-0.1,0.28-0.31,0.37
			c-1.41,0.61-2.11,1.37-2.11,2.27c0,0.35,0.07,0.79,0.2,1.32s0.52,1.79,1.17,3.8C186.91,43.15,187.16,44.25,187.17,45z
			 M190.3,33.79c0,0.59-0.16,1.52-0.47,2.81c-0.12,0.44-0.25,0.73-0.39,0.86c-0.07,0.07-0.29,0.16-0.66,0.29
			c-0.48,0.18-0.78,0.27-0.9,0.27c-0.2,0-0.29-0.13-0.29-0.39c0-0.14,0.03-0.33,0.08-0.57c0.31-1.29,0.43-2.18,0.36-2.69
			s0.08-0.82,0.44-0.95c0.64-0.33,1.05-0.49,1.23-0.49C190.1,32.95,190.3,33.23,190.3,33.79z"/>
	</g>
</g>
</svg>
