<svg xmlns="http://www.w3.org/2000/svg" width="199.706" height="71.437" viewBox="0 0 199.706 71.437"><defs><style>.a,.h{fill:#c5d02e;}.b,.d{fill:none;}.c{fill:#fff;}.d{stroke:#2d2d2d;stroke-miterlimit:10;}.e,.g{fill:#00739f;}.f{fill:#2d2d2d;}.g,.h{font-size:40px;font-family:Pristina-Regular, Pristina;}</style></defs><g transform="translate(-151.294 -146.515)"><g transform="translate(0 107)"><path class="a" d="M181.922,45.714a28.742,28.742,0,0,1,29.752,17.569,26.315,26.315,0,0,1,.406,18.472,25.685,25.685,0,0,1-11.486,13.81,31,31,0,0,0,8.886-14.606,26.513,26.513,0,0,0-1.043-16.386A28.96,28.96,0,0,0,198.064,51.69,35.539,35.539,0,0,0,181.922,45.714Z"/><path class="b" d="M210.828,41.987"/><path class="c" d="M205,45.773a1.5,1.5,0,0,0,.123-1.526,1.345,1.345,0,0,0-2.4,0,1.5,1.5,0,0,0,.124,1.526,1.46,1.46,0,0,1-.43-1.659,1.611,1.611,0,0,1,3.01,0A1.455,1.455,0,0,1,205,45.773Z"/><path class="c" d="M218.316,45.773a1.492,1.492,0,0,0,.123-1.526,1.343,1.343,0,0,0-2.4,0,1.493,1.493,0,0,0,.123,1.526,1.462,1.462,0,0,1-.432-1.659,1.612,1.612,0,0,1,3.012,0A1.456,1.456,0,0,1,218.316,45.773Z"/><path class="c" d="M205.74,42.057a11.437,11.437,0,0,0,5.678.481c.928-.2,1.918-.4,2.891-.545a11.682,11.682,0,0,1,3-.132l-.032,0a6.669,6.669,0,0,1,1.879.417,3.9,3.9,0,0,1,.865.458,1.547,1.547,0,0,1,.58.788l-.08.035a1.515,1.515,0,0,0-.695-.489,3.921,3.921,0,0,0-.83-.222,10.89,10.89,0,0,0-1.738-.131h.041l-.074,0c-.9-.018-1.883.017-2.836.062-.971.049-1.9.188-2.889.326a10.458,10.458,0,0,1-2.979-.1,11.118,11.118,0,0,1-2.816-.867Z"/><path class="c" d="M206.617,44.406c1.2-.092,2.4-.163,3.615-.163a17.248,17.248,0,0,1,1.807.046c.6.072,1.189.113,1.793.227v.043a8.8,8.8,0,0,1-1.814.168c-.608,0-1.2-.093-1.8-.134-1.2-.077-2.4-.112-3.6-.142Z"/><path class="c" d="M203.023,41.606a8.5,8.5,0,0,1,2.713-1.579,8.162,8.162,0,0,1,3.164-.5,7.045,7.045,0,0,1,3.078.917,12.632,12.632,0,0,1,2.561,1.792c-.961-.4-1.9-.815-2.84-1.178a8.46,8.46,0,0,0-2.842-.661,10.638,10.638,0,0,0-2.927.286A20.654,20.654,0,0,0,203.023,41.606Z"/><path class="c" d="M198.812,39.935l3.077-.077a20.269,20.269,0,0,1,3.076.077v.022a20.531,20.531,0,0,1-3.076.076l-3.077-.076Z"/><path class="c" d="M196.914,40.961l3.076-.075a20.392,20.392,0,0,1,3.076.075v.023a20.392,20.392,0,0,1-3.076.076l-3.076-.076Z"/><path class="c" d="M196.15,41.521l3.076-.076a19.792,19.792,0,0,1,3.079.076v.022a20.7,20.7,0,0,1-3.079.075l-3.076-.075Z"/><path class="c" d="M199.7,40.416l1.943-.075a8.214,8.214,0,0,1,1.942.075v.023a8.058,8.058,0,0,1-1.942.075l-1.943-.075Z"/><path class="c" d="M196.646,42.316l1.942-.075a8.2,8.2,0,0,1,1.941.075v.024a8.15,8.15,0,0,1-1.941.076l-1.942-.076Z"/><path class="c" d="M195.623,43.094l1.941-.075a7.954,7.954,0,0,1,1.942.075v.021a8.158,8.158,0,0,1-1.942.075l-1.941-.075Z"/><path class="d" d="M212.115,73.721"/><path class="e" d="M223.16,98.273a21.45,21.45,0,0,0-17.8-1.05,20.1,20.1,0,0,0-3.957,2.086,37.866,37.866,0,0,1-4.4,2.279,35.6,35.6,0,0,1-9.58,2.732,31.262,31.262,0,0,1-10.11-.338,33.514,33.514,0,0,1-9.572-3.409,32.1,32.1,0,0,1-13.816-14.781,30.433,30.433,0,0,1-2.547-9.99c-.063-.876-.09-1.692-.084-2.616.01-.742.056-1.725.135-2.548a28.553,28.553,0,0,1,.931-5.075,30.712,30.712,0,0,1,11.436-16.5,31.909,31.909,0,0,1,8.9-4.616,33.027,33.027,0,0,1,9.766-1.623c1.668-.011,3.238.134,4.814.209,1.58.094,3.161.171,4.741.289,3.16.211,6.32.433,9.48.724-3.16.292-6.32.514-9.48.727-1.58.116-3.161.194-4.741.287s-3.175.141-4.662.328a30.653,30.653,0,0,0-16.3,6.885,29.716,29.716,0,0,0-5.779,6.58,26.256,26.256,0,0,0-1.84,24.8A27.5,27.5,0,0,0,170.16,96.269a29.982,29.982,0,0,0,16.848,4.01,34.878,34.878,0,0,0,8.754-1.866,35.519,35.519,0,0,0,4.187-1.712l.25-.127.067-.034.031-.017c.054-.028-.016,0-.217.157a1.063,1.063,0,0,1,.188-.14l.05-.03.08-.047.067-.039c.123-.074.054-.03.092-.051l.035-.017.142-.07.284-.139c.378-.19.769-.353,1.156-.52a21.337,21.337,0,0,1,20.986,2.646Z"/><path class="a" d="M170.516,105.365a35.094,35.094,0,0,0,15.33,2.16,30.667,30.667,0,0,0,7.318-1.585c.586-.211,1.17-.428,1.746-.667s1.137-.5,1.758-.782l3.646-1.642a63.793,63.793,0,0,1,7.7-2.98,22.424,22.424,0,0,1,8.6-.863,35.166,35.166,0,0,1,8.108,1.889,60.71,60.71,0,0,1,7.48,3.2c-2.7-.327-5.34-.8-7.978-1.123a49.764,49.764,0,0,0-7.735-.547,22.518,22.518,0,0,0-7.216,1.377c-2.356.836-4.747,1.942-7.186,3.024l-3.7,1.6c-.606.249-1.264.528-1.94.773s-1.349.479-2.041.668a27.762,27.762,0,0,1-8.463,1.068,27.15,27.15,0,0,1-8.257-1.559A23.037,23.037,0,0,1,170.516,105.365Z"/><path class="a" d="M156.932,73.721l54.994-1.743v3.484Z"/><path class="a" d="M184.611,47.316l.262,7.766.195,7.768c.073,2.588.217,5.178.131,7.766a75.753,75.753,0,0,1-.588,7.767h-.131a75.746,75.746,0,0,1-.587-7.767c-.086-2.588.06-5.178.13-7.766l.2-7.768.261-7.766Z"/><path class="a" d="M162.646,58.277a46.545,46.545,0,0,0,10.694,4.028,36.744,36.744,0,0,0,11.267,1.047,46.574,46.574,0,0,0,5.6-.854q2.788-.567,5.512-1.367c1.812-.536,3.6-1.15,5.342-1.858a37.036,37.036,0,0,0,5-2.419l1.123,1.865a38.615,38.615,0,0,1-5.448,2.338c-1.839.647-3.707,1.189-5.589,1.65s-3.786.835-5.7,1.133a48.1,48.1,0,0,1-5.785.6A37.575,37.575,0,0,1,173.2,62.831,46.745,46.745,0,0,1,162.646,58.277Z"/><path class="a" d="M173.465,51.963a40.971,40.971,0,0,0-3.473,7.313,36.817,36.817,0,0,0-1.9,7.769c-.332,2.663-.529,5.368-.66,8.067-.1,2.7-.178,5.412-.061,8.143a40.309,40.309,0,0,1-.959-8.153,57.158,57.158,0,0,1,.383-8.224,29.288,29.288,0,0,1,2.258-7.98A25.862,25.862,0,0,1,173.465,51.963Z"/><path class="a" d="M193.969,50.464a23.823,23.823,0,0,1,3.627,5.851,33.941,33.941,0,0,1,2.109,6.6,28.888,28.888,0,0,1,.764,6.9,26.065,26.065,0,0,1-1.075,6.836l-.128-.018c-.032-2.306-.006-4.563-.1-6.81a62.474,62.474,0,0,0-.486-6.72,32.846,32.846,0,0,0-1.684-6.539,23.516,23.516,0,0,0-3.123-6.011Z"/><path class="c" d="M205.547,82.94c.066-2.441-2-4.939-2-4.939-.981-1.089-3.559-1.089-3.559-1.089l-2.939.692-11.289,4.028V78.4l-1.987,1.248-1.1.694V82.9l-4.739.9-5.722-.008-3.533,3.363v6.862s6.732,4.573,11.923,5.262a36.383,36.383,0,0,0,11.409-.547,32.843,32.843,0,0,0,8.195-3.155c.762-.434,4.865-9.329,4.865-9.329A12.379,12.379,0,0,0,205.547,82.94Z"/><path class="f" d="M194.295,75.77"/><rect class="c" width="1" height="6.859" transform="translate(185.612 79.355) rotate(-82.185)"/><path class="c" d="M177.01,84.487a.5.5,0,0,1-.5-.5v-2.5a.5.5,0,0,1,1,0v2.5A.5.5,0,0,1,177.01,84.487Z"/><path class="c" d="M174.873,86.89a1.25,1.25,0,0,1-1.25-1.25V80.658a1.25,1.25,0,0,1,2.5,0V85.64A1.25,1.25,0,0,1,174.873,86.89Z"/><path class="c" d="M180.4,79.119,178.045,81.2v2.782l2.9-.681V79.656l2.492.207.553-.35Z"/><path class="c" d="M178.045,84.323h-5.41v7.1l5.119-4.5h-2.123V84.74h2.414"/><path class="c" d="M200.418,83.677a5.511,5.511,0,0,1-1.322,3.566,20.264,20.264,0,0,0-2.1,3.146,13.214,13.214,0,0,0-.93,3.657c-.181,1.257-.308,2.528-.427,3.8l-.036,0c.075-1.272.153-2.546.29-3.817a13.489,13.489,0,0,1,.849-3.749,15.968,15.968,0,0,1,2.076-3.24,6.26,6.26,0,0,0,1.569-3.354Z"/></g><g transform="translate(-1 107)"><text class="g" transform="translate(217 54)"><tspan x="0" y="35">SC</tspan></text><text class="h" transform="translate(258 54)"><tspan x="0" y="35">Roads</tspan></text></g></g></svg>